<svg width="32" height="32" viewBox="0 0 32 32" fill="none" xmlns="http://www.w3.org/2000/svg">
<path d="M14.2677 6C15.0375 4.66667 16.962 4.66667 17.7318 6L28.1241 24C28.8939 25.3333 27.9317 27 26.3921 27H5.60747C4.06787 27 3.10563 25.3333 3.87543 24L14.2677 6Z" fill="#FFCD00"/>
<path fill-rule="evenodd" clip-rule="evenodd" d="M15.2607 14H16.7393C16.8775 14 16.9894 14.1347 16.9894 14.3007C16.9894 14.305 16.9893 14.3091 16.9891 14.3133L16.76 19.1028C16.7544 19.2639 16.6442 19.391 16.5102 19.391H15.4898C15.3558 19.391 15.2456 19.2638 15.24 19.1028L15.0109 14.3133C15.0051 14.1474 15.1123 14.0072 15.2503 14.0002C15.2537 14.0001 15.2571 14 15.2607 14ZM16 20.5939C16.5523 20.5939 17 21.1326 17 21.797C17 22.4614 16.5523 23 16 23C15.4477 23 15 22.4614 15 21.797C15 21.1326 15.4477 20.5939 16 20.5939Z" fill="white"/>
</svg>
