<svg width="120" height="120" viewBox="0 0 120 120" fill="none" xmlns="http://www.w3.org/2000/svg">
<path fill-rule="evenodd" clip-rule="evenodd" d="M0.000331417 60.2721C-0.108759 27.079 26.7275 0.10952 59.8909 0.000331715C93.0544 -0.108856 120 26.7514 120 59.8354C120.109 93.0286 93.2725 119.998 60.2182 119.998C27.0547 120.216 0.109422 93.3561 0.000331417 60.2721Z" fill="#B7DBFF"/>
<path d="M67.0904 50.4443H26.3997C23.5634 50.4443 21.2725 52.6281 21.2725 55.2486V91.3899C21.2725 94.0104 24.5452 95.2114 26.5088 93.4644L31.4179 88.7693H66.9813C69.8176 88.7693 72.1085 86.5856 72.1085 83.9651V55.2486C72.2176 52.6281 69.9267 50.4443 67.0904 50.4443Z" fill="#56A6F9"/>
<path d="M89.0188 75.8846H44.0736C37.7464 75.8846 32.6191 70.7528 32.6191 64.4199V46.1854C32.6191 39.8525 37.7464 34.7207 44.0736 34.7207H89.0188C95.3461 34.7207 100.473 39.8525 100.473 46.1854V64.3107C100.473 70.7528 95.3461 75.8846 89.0188 75.8846ZM44.0736 43.4557C42.5464 43.4557 41.3464 44.6568 41.3464 46.1854V64.3107C41.3464 65.8393 42.5464 67.0404 44.0736 67.0404H89.0188C90.5461 67.0404 91.7461 65.8393 91.7461 64.3107V46.1854C91.7461 44.6568 90.5461 43.4557 89.0188 43.4557H44.0736Z" fill="#B7DBFF"/>
<path d="M39.71 33.3018V63.9836C39.71 66.8225 42.0009 69.1154 44.8372 69.1154H88.6915L93.6006 74.0289C95.5642 75.9943 98.8369 74.5748 98.8369 71.8451V33.3018C98.8369 30.4629 96.546 28.1699 93.7097 28.1699H44.7281C42.0009 28.1699 39.71 30.4629 39.71 33.3018Z" fill="white"/>
<path d="M52.0374 37.123H86.4009C87.3827 37.123 88.1463 37.8874 88.1463 38.8701C88.1463 39.8527 87.3827 40.6171 86.4009 40.6171H52.0374C51.0556 40.6171 50.292 39.8527 50.292 38.8701C50.292 37.9965 51.0556 37.123 52.0374 37.123Z" fill="#3399FF"/>
<path d="M52.0374 46.9492H86.4009C87.3827 46.9492 88.1463 47.7135 88.1463 48.6962C88.1463 49.6789 87.3827 50.4432 86.4009 50.4432H52.0374C51.0556 50.4432 50.292 49.6789 50.292 48.6962C50.292 47.7135 51.0556 46.9492 52.0374 46.9492Z" fill="#3399FF"/>
<path d="M52.0374 57.541H81.3827C82.3645 57.541 83.1282 58.3053 83.1282 59.288C83.1282 60.2707 82.3645 61.035 81.3827 61.035H52.0374C51.0556 61.035 50.292 60.2707 50.292 59.288C50.292 58.3053 51.0556 57.541 52.0374 57.541Z" fill="#3399FF"/>
</svg>
