<svg width="24" height="24" viewBox="0 0 24 24" fill="none" xmlns="http://www.w3.org/2000/svg">
<path d="M12 4C7.584 4 4 7.584 4 12C4 16.416 7.584 20 12 20C16.416 20 20 16.416 20 12C20 7.584 16.416 4 12 4ZM12.704 16.608V16.896C12.704 17.28 12.392 17.6 12 17.6C11.616 17.6 11.296 17.288 11.296 16.896V16.56C10.792 16.44 9.752 16.072 9.144 14.88C8.96 14.528 9.136 14.088 9.504 13.936L9.56 13.912C9.888 13.776 10.256 13.912 10.424 14.224C10.68 14.712 11.184 15.32 12.12 15.32C12.864 15.32 13.704 14.936 13.704 14.032C13.704 13.264 13.144 12.864 11.88 12.408C11 12.096 9.2 11.584 9.2 9.76C9.2 9.68 9.208 7.84 11.296 7.392V7.104C11.296 6.712 11.616 6.4 12 6.4C12.384 6.4 12.704 6.712 12.704 7.104V7.4C13.56 7.552 14.104 8.008 14.432 8.44C14.704 8.792 14.56 9.304 14.144 9.48C13.856 9.6 13.52 9.504 13.328 9.256C13.104 8.952 12.704 8.64 12.048 8.64C11.488 8.64 10.6 8.936 10.6 9.752C10.6 10.512 11.288 10.8 12.712 11.272C14.632 11.936 15.12 12.912 15.12 14.032C15.12 16.136 13.12 16.536 12.704 16.608Z" fill="#777777"/>
</svg>
