<svg width="24" height="24" viewBox="0 0 24 24" fill="none" xmlns="http://www.w3.org/2000/svg">
<path d="M14.2222 1.8H13.3333V0.9C13.3333 0.405 12.9333 0 12.4444 0C11.9556 0 11.5556 0.405 11.5556 0.9V1.8H4.44444V0.9C4.44444 0.405 4.04444 0 3.55556 0C3.06667 0 2.66667 0.405 2.66667 0.9V1.8H1.77778C0.791111 1.8 0 2.61 0 3.6V16.2C0 17.19 0.8 18 1.77778 18H14.2222C15.2 18 16 17.19 16 16.2V3.6C16 2.61 15.2 1.8 14.2222 1.8ZM8 4.5C9.47556 4.5 10.6667 5.706 10.6667 7.2C10.6667 8.694 9.47556 9.9 8 9.9C6.52444 9.9 5.33333 8.694 5.33333 7.2C5.33333 5.706 6.52444 4.5 8 4.5ZM13.3333 15.3H2.66667V14.4C2.66667 12.6 6.22222 11.61 8 11.61C9.77778 11.61 13.3333 12.6 13.3333 14.4V15.3Z" fill="#777777"/>
</svg>
