<svg width="24" height="24" viewBox="0 0 24 24" fill="none" xmlns="http://www.w3.org/2000/svg">
<path d="M18.2222 4H5.77778C4.8 4 4 4.8 4 5.77778V18.2222C4 19.2 4.8 20 5.77778 20H18.2222C19.2 20 20 19.2 20 18.2222V5.77778C20 4.8 19.2 4 18.2222 4ZM12.8889 16.4444H8.44444C7.95556 16.4444 7.55556 16.0444 7.55556 15.5556C7.55556 15.0667 7.95556 14.6667 8.44444 14.6667H12.8889C13.3778 14.6667 13.7778 15.0667 13.7778 15.5556C13.7778 16.0444 13.3778 16.4444 12.8889 16.4444ZM15.5556 12.8889H8.44444C7.95556 12.8889 7.55556 12.4889 7.55556 12C7.55556 11.5111 7.95556 11.1111 8.44444 11.1111H15.5556C16.0444 11.1111 16.4444 11.5111 16.4444 12C16.4444 12.4889 16.0444 12.8889 15.5556 12.8889ZM15.5556 9.33333H8.44444C7.95556 9.33333 7.55556 8.93333 7.55556 8.44444C7.55556 7.95556 7.95556 7.55556 8.44444 7.55556H15.5556C16.0444 7.55556 16.4444 7.95556 16.4444 8.44444C16.4444 8.93333 16.0444 9.33333 15.5556 9.33333Z" fill="#777777"/>
</svg>
