<svg width="120" height="120" viewBox="0 0 120 120" fill="none" xmlns="http://www.w3.org/2000/svg">
<path d="M119.5 60C119.5 92.8609 92.8609 119.5 60 119.5C27.1391 119.5 0.5 92.8609 0.5 60C0.5 27.1391 27.1391 0.5 60 0.5C92.8609 0.5 119.5 27.1391 119.5 60Z" fill="#B7DBFF" stroke="#B7DBFF"/>
<path d="M76.582 55.6365C76.582 54.5455 77.2366 53.2365 77.8911 51.9274C78.873 49.9637 79.9639 47.7819 79.3093 45.7092C78.6548 43.6365 76.6911 42.4365 74.7275 41.3455C73.5275 40.5819 72.2184 39.8183 71.5639 39.0546C71.0184 38.1819 70.6911 36.7637 70.582 35.3455C70.3639 34.3637 70.2548 33.2728 69.9275 32.291C69.4911 31.091 68.9457 30.1092 68.0729 29.5637C66.7639 28.5819 65.3457 28.3637 64.3639 28.3637C63.4911 28.3637 62.6184 28.4728 61.7457 28.5819C60.8729 28.691 60.1093 28.8001 59.3457 28.8001C58.6911 28.8001 58.1457 28.691 57.7093 28.5819C56.7275 28.1455 55.6366 27.1637 54.4366 26.1819C52.8002 24.6546 51.1639 23.0183 49.0911 22.9092H48.982C46.8002 22.9092 45.0548 24.4365 43.4184 25.9637C42.4366 26.9455 41.3457 27.9274 40.2548 28.2546C40.0366 28.3637 39.6002 28.3637 39.0548 28.3637C38.182 28.3637 37.3093 28.2546 36.3275 28.1455C35.3457 28.0365 34.2548 27.8183 33.2729 27.8183C31.9639 27.8183 30.8729 28.0365 30.0002 28.691C28.1457 29.891 27.7093 32.1819 27.2729 34.4728C26.9457 35.891 26.6184 37.4183 25.9639 38.1819C25.4184 38.9455 24.1093 39.7092 22.8002 40.2546C20.8366 41.2365 18.6548 42.3274 17.8911 44.6183C17.1275 46.691 18.1093 48.9819 19.0911 50.9455C19.6366 52.2546 20.2911 53.5637 20.2911 54.5455C20.2911 55.6365 19.6366 56.9455 18.982 58.2546C18.0002 60.2183 16.9093 62.4001 17.5639 64.4728C18.2184 66.5455 20.182 67.7455 22.1457 68.8365C23.3457 69.491 24.6548 70.3637 25.3093 71.1274C25.8548 72.0001 26.182 73.4183 26.2911 74.8365C26.5093 75.8183 26.6184 76.9092 26.9457 77.891C27.382 79.091 27.9275 80.0728 28.8002 80.6183C30.0002 81.491 31.4184 81.6001 32.4002 81.6001C33.2729 81.6001 34.1457 81.491 35.0184 81.3819C35.8911 81.2728 36.6548 81.1637 37.4184 81.1637C38.0729 81.1637 38.6184 81.2728 39.0548 81.3819C40.0366 81.8183 41.1275 82.8001 42.3275 83.7819C43.9639 85.3092 45.6002 86.9455 47.6729 87.0546H47.782C49.9639 87.0546 51.7093 85.5274 53.3457 84.0001C54.3275 83.0183 55.4184 82.0365 56.5093 81.7092C56.8366 81.6001 57.1639 81.6001 57.7093 81.6001C58.582 81.6001 59.4548 81.7092 60.4366 81.8183C61.4184 81.9274 62.5093 82.1455 63.4911 82.1455C64.8002 82.1455 65.8911 81.9274 66.7639 81.2728C68.6184 80.0728 69.0548 77.7819 69.4911 75.491C69.8184 74.0728 70.1457 72.5455 70.8002 71.7819C71.3457 71.0183 72.6548 70.2546 73.9639 69.7092C75.9275 68.7274 78.1093 67.6365 78.873 65.3455C79.6366 63.2728 78.6548 60.9819 77.6729 59.0183C77.1275 58.0365 76.582 56.7274 76.582 55.6365Z" fill="white"/>
<path d="M39.3819 38.9453C35.4547 38.9453 32.291 42.1089 32.291 46.0362C32.291 49.9635 35.4547 53.1271 39.3819 53.1271C43.3092 53.1271 46.4728 49.9635 46.4728 46.0362C46.4728 42.1089 43.3092 38.9453 39.3819 38.9453ZM39.3819 49.0908C37.7456 49.0908 36.3274 47.7817 36.3274 46.0362C36.3274 44.3999 37.6365 42.9817 39.3819 42.9817C41.0183 42.9817 42.4365 44.2908 42.4365 46.0362C42.4365 47.6726 41.0183 49.0908 39.3819 49.0908ZM57.491 57.1635C53.5637 57.1635 50.4001 60.3271 50.4001 64.2544C50.4001 68.1817 53.5637 71.3453 57.491 71.3453C61.4183 71.3453 64.5819 68.1817 64.5819 64.2544C64.5819 60.3271 61.4183 57.1635 57.491 57.1635ZM57.491 67.1999C55.8547 67.1999 54.4365 65.8908 54.4365 64.1453C54.4365 62.3999 55.7456 61.0908 57.491 61.0908C59.1274 61.0908 60.5456 62.3999 60.5456 64.1453C60.5456 65.8908 59.1274 67.1999 57.491 67.1999ZM63.1637 40.4726C63.9274 41.2362 63.9274 42.5453 63.1637 43.3089L36.5456 69.818C35.7819 70.5817 34.4728 70.5817 33.7092 69.818C32.9456 69.0544 32.9456 67.7453 33.7092 66.9817L60.2183 40.4726C61.091 39.5999 62.291 39.5999 63.1637 40.4726Z" fill="#B7DBFF"/>
<path d="M95.0186 65.3455C94.255 66.2182 92.8368 66.2182 92.0731 65.3455L86.6186 59.5637L82.9095 55.5273C81.7095 54.2182 82.5822 52.1455 84.4368 52.1455H93.6004H102.764C104.509 52.1455 105.491 54.2182 104.291 55.5273L100.582 59.5637L95.0186 65.3455Z" fill="#56A6F9"/>
<path d="M96.4372 55.7452H90.7645C88.6917 55.7452 86.9463 53.9997 86.9463 51.927V43.0906C86.9463 41.0179 88.6917 39.2725 90.7645 39.2725H96.4372C98.5099 39.2725 100.255 41.0179 100.255 43.0906V51.927C100.255 54.1088 98.5099 55.7452 96.4372 55.7452Z" fill="#56A6F9"/>
<path d="M78.8291 106.144C77.5452 107.527 75.4711 107.527 74.1872 106.144L65.5949 97.0582L59.7679 90.8361C57.8914 88.7621 59.274 85.5029 62.1382 85.5029H76.5575H90.9769C93.7423 85.5029 95.2237 88.8609 93.3472 90.8361L87.5202 97.0582L78.8291 106.144Z" fill="#56A6F9"/>
<path d="M83.3724 91.1324H69.5456C67.6691 91.1324 66.0889 89.5522 66.0889 87.6757V68.9108C66.0889 67.0343 67.6691 65.4541 69.5456 65.4541H83.4711C85.3476 65.4541 86.9278 67.0343 86.9278 68.9108V87.7745C86.8291 89.651 85.3476 91.1324 83.3724 91.1324Z" fill="#56A6F9"/>
</svg>
